<?xml version="1.0" encoding="UTF-8"?>
<svg width="600" height="450" version="1.1" viewBox="0 0 600 450" xmlns="http://www.w3.org/2000/svg" xmlns:xlink="http://www.w3.org/1999/xlink">
 <g transform="matrix(.76641 0 0 .76641 69.901 -97.678)">
  <use transform="matrix(.87971 0 0 .87971 -19.887 -48.998)" xlink:href="#b"/>
  <use transform="matrix(.87971 0 0 .87971 -243.45 -48.998)" xlink:href="#a"/>
  <use transform="matrix(.87971 0 0 .87971 35.996 -48.998)" xlink:href="#a"/>
 </g>
 <g transform="matrix(.66576 0 0 .66576 100.02 -135.96)">
  <use transform="matrix(.87971 0 0 .87971 -19.887 -48.998)" xlink:href="#b"/>
  <use transform="matrix(.87971 0 0 .87971 -243.45 -48.998)" xlink:href="#a"/>
  <use transform="matrix(.87971 0 0 .87971 35.996 -48.998)" xlink:href="#a"/>
 </g>
 <g id="f" transform="translate(0 -2.1131)">
  <use transform="matrix(.87971 0 0 .87971 -19.887 -48.998)" xlink:href="#b"/>
  <use transform="matrix(.87971 0 0 .87971 -243.45 -48.998)" xlink:href="#a"/>
  <use transform="matrix(.87971 0 0 .87971 35.996 -48.998)" xlink:href="#a"/>
 </g>
 <use transform="matrix(.88226 0 0 .88226 35.235 -52.692)" xlink:href="#f"/>
 <use transform="translate(-317.65 .012242)" xlink:href="#a"/>
 <g id="a">
  <g id="e">
   <g id="b">
    <rect x="350.7" y="365.48" width="24.122" height="39.032" fill="none" stroke="#000" stroke-linecap="round" stroke-linejoin="round" stroke-miterlimit="10" stroke-width="4.0239"/>
    <rect x="354.99" y="339.27" width="15.572" height="15.572" fill="none" stroke="#000" stroke-linecap="round" stroke-linejoin="round" stroke-miterlimit="10" stroke-width="4.0239"/>
    <rect x="349.12" y="409.7" width="8.2071" height="13.279" fill="none" stroke="#000" stroke-linecap="round" stroke-linejoin="round" stroke-miterlimit="10" stroke-width="4.0238"/>
    <rect x="368.23" y="409.7" width="8.2071" height="13.279" fill="none" stroke="#000" stroke-linecap="round" stroke-linejoin="round" stroke-miterlimit="10" stroke-width="4.0238"/>
    <rect x="359.87" y="354.85" width="5.788" height="10.63" fill="none" stroke="#000" stroke-linecap="round" stroke-linejoin="round" stroke-miterlimit="10" stroke-width="4.0239"/>
    <path d="m350.7 365.48-13.837 22.715v2.7866" fill="none" stroke="#000" stroke-linecap="round" stroke-linejoin="round" stroke-miterlimit="10" stroke-width="4.0239"/>
    <path d="m333.54 395.94v-4.9611h6.6836v4.9611" fill="none" stroke="#000" stroke-linecap="round" stroke-linejoin="round" stroke-miterlimit="10" stroke-width="4.0239"/>
    <path d="m359.47 339.15-3.3918-8.0326" fill="none" stroke="#000" stroke-linecap="round" stroke-linejoin="round" stroke-miterlimit="10" stroke-width="4.0239"/>
    <path d="m366.08 339.15 3.3918-8.0326" fill="none" stroke="#000" stroke-linecap="round" stroke-linejoin="round" stroke-miterlimit="10" stroke-width="4.0239"/>
    <path d="m374.81 365.48 13.837 22.715v2.7866" fill="none" stroke="#000" stroke-linecap="round" stroke-linejoin="round" stroke-miterlimit="10" stroke-width="4.0239"/>
    <path d="m391.97 395.94v-4.9611h-6.6836v4.9611" fill="none" stroke="#000" stroke-linecap="round" stroke-linejoin="round" stroke-miterlimit="10" stroke-width="4.0239"/>
   </g>
   <use transform="translate(63.555 -.012242)" xlink:href="#b"/>
  </g>
  <use transform="translate(127.05 -.0075163)" xlink:href="#e"/>
 </g>
 <g fill="none" stroke="#f00" stroke-linecap="round" stroke-linejoin="round" stroke-miterlimit="10" stroke-width="4.024">
  <path d="m328.47 422.98h-5.4517l-9.0893-22.67-14.673-15.297v-23.152"/>
  <path d="m270.03 422.98h5.4517l9.0895-22.67 14.673-15.297v-23.152"/>
  <path d="m328.25 422.98h-5.4104l-9.0207-22.67-14.562-15.297-1e-5 -23.152 18.19 18.19v2.2049"/>
  <path d="m270.27 422.98h5.4104l9.0207-22.67 14.562-15.297-2e-5 -23.152-18.19 18.19v2.2049"/>
  <circle cx="299.25" cy="348.27" r="8.9908"/>
 </g>
</svg>
